HIERARCHY
ROOT pelvis
{
  OFFSET 0 100 0
  CHANNELS 6 Xposition Yposition Zposition Zrotation Xrotation Yrotation
  JOINT pelvis_right_femur
  {
    OFFSET -10.78128 -3.44521 -0.5502486
    CHANNELS 3 Zrotation Xrotation Yrotation
    JOINT right_femur_tibia
    {
      OFFSET -0.8047443 -44.0398 -0.1307829
      CHANNELS 3 Zrotation Xrotation Yrotation
      JOINT right_tibia_foot
      {
        OFFSET 3.006224 -47.83518 -5
        CHANNELS 3 Zrotation Xrotation Yrotation
        End Site
        {
          OFFSET 0 -5 15
        }
      }
    }
  }
  JOINT pelvis_left_femur
  {
    OFFSET 10.78128 -3.44521 -0.5502486
    CHANNELS 3 Zrotation Xrotation Yrotation
    JOINT left_femur_tibia
    {
      OFFSET 0.8047443 -44.0398 -0.1307829
      CHANNELS 3 Zrotation Xrotation Yrotation
      JOINT left_tibia_foot
      {
        OFFSET -4.370144 -48.10324 -4.275266
        CHANNELS 3 Zrotation Xrotation Yrotation
        End Site
        {
          OFFSET 0 -5 15
        }
      }
    }
  }
  JOINT pelvis_spine1
  {
    OFFSET 0 6.468898 -3.129235
    CHANNELS 3 Zrotation Xrotation Yrotation
    JOINT spine1
    {
      OFFSET 0 23.15396 4.99043
      CHANNELS 3 Zrotation Xrotation Yrotation
      JOINT spine2
      {
        OFFSET 0 20.79997 -5.064912
        CHANNELS 3 Zrotation Xrotation Yrotation
        JOINT neck
        {
          OFFSET 0 14.38658 9.616178
          CHANNELS 3 Zrotation Xrotation Yrotation
          End Site
          {
            OFFSET 0 20 0
          }
        }
      }
      JOINT right_manubrium
      {
        OFFSET -5.722621 16.35077 3.967754
        CHANNELS 3 Zrotation Xrotation Yrotation
        JOINT right_clavicle
        {
          OFFSET -13.16364 1.694482 -4.693211
          CHANNELS 3 Zrotation Xrotation Yrotation
          JOINT right_humerus
          {
            OFFSET -28.5034 -0.3100689 -2.792744
            CHANNELS 3 Zrotation Xrotation Yrotation
            JOINT right_radius
            {
              OFFSET -25.15693 0.02248979 -1.271978
              CHANNELS 3 Zrotation Xrotation Yrotation
              End Site
              {
                OFFSET -15 0 0
              }
            }
          }
        }
      }
      JOINT left_manubrium
      {
        OFFSET 5.722621 16.35077 3.967754
        CHANNELS 3 Zrotation Xrotation Yrotation
        JOINT left_clavicle
        {
          OFFSET 13.16364 1.694482 -4.693211
          CHANNELS 3 Zrotation Xrotation Yrotation
          JOINT left_humerus
          {
            OFFSET 29.39168 -1.063119 -2.237045
            CHANNELS 3 Zrotation Xrotation Yrotation
            JOINT left_radius
            {
              OFFSET 24.59957 -0.9528479 0.9047498
              CHANNELS 3 Zrotation Xrotation Yrotation
              End Site
              {
                OFFSET 15 -0 -0
              }
            }
          }
        }
      }
    }
  }
}
MOTION
Frames: 8
Frame Time: 0.0416666666667
0 103.5113 0 0.1826687 0.3921185 0.294751 3.49398 -13.97412 7.001698 1.285285e-06 34.67648 -1.3351e-06 -8.786032 -16.54159 -1.821264 -6.940295 6.602475 -23.46981 1.728758e-06 4.622383 -5.295053e-07 4.65618 -18.06853 24.52412 -3.559834 -2.176488 3.921601 2.477714 7.758863 -6.706717 1.248287 22.83184 7.400712 3.34824 -25.13939 9.895352 6.045719 -19.13386 10.6839 83.94484 37.01614 -15.69237 1.408473e-07 -1.583821e-07 15.74429 -5.667382 6.609375 5.534824 5.447525 -17.93878 -0.2455702 -97.19413 31.33397 24.97339 -6.704416e-07 -2.294859e-07 -12.79061 4.113778 17.57504 9.733317
0.4322392 103.5616 1.811316 0.2282341 0.5256212 0.6711854 3.403224 -15.46678 6.987719 1.232306e-06 35.90055 -1.301671e-06 -8.45934 -15.44023 -1.89157 -7.058508 8.075023 -23.54812 1.714796e-06 4.538699 -6.024845e-07 4.65814 -18.54283 24.28401 -3.670654 -2.243274 3.776502 2.519755 7.843683 -6.919174 1.198364 22.7739 7.573243 3.451929 -25.19577 9.970928 6.261051 -18.86192 10.73704 84.54663 37.2721 -16.51822 1.479272e-07 -1.363399e-07 15.3198 -5.857782 6.829482 5.498569 5.518849 -18.18078 -0.3471967 -96.84209 31.41995 24.31941 -6.324807e-07 -2.531745e-07 -13.5382 4.093886 17.37074 9.813613
0.8593777 103.6216 3.73058 0.2418604 0.7413269 1.10543 3.412438 -17.28097 6.832439 1.132096e-06 35.74339 -1.188288e-06 -8.127122 -14.37764 -1.953019 -7.063739 9.552647 -23.35181 1.614028e-06 4.47161 -5.19074e-07 4.634773 -19.01995 23.8213 -3.721676 -2.324819 3.646882 2.606185 7.987772 -7.217911 1.112864 22.62737 7.724446 3.547245 -25.24015 9.962581 6.386344 -18.64255 10.8376 85.26906 37.44355 -17.56811 1.442057e-07 -1.192222e-07 14.84158 -6.19901 7.164505 5.49186 5.644389 -18.6379 -0.5312565 -96.20264 31.29039 23.44278 -5.575855e-07 -2.567598e-07 -14.77987 4.171653 17.11283 9.729886
1.272266 103.6187 5.794795 0.2184018 1.033807 1.567417 3.522859 -19.22316 6.551786 9.906753e-07 34.13272 -9.998767e-07 -7.808628 -13.448 -1.985527 -6.961007 10.84194 -22.87015 1.426425e-06 4.469741 -2.865768e-07 4.580281 -19.43079 23.15332 -3.703789 -2.419042 3.558077 2.732108 8.189551 -7.581411 0.993342 22.39093 7.841002 3.628037 -25.27074 9.860217 6.414857 -18.50942 10.98842 86.03394 37.52578 -18.74741 1.297534e-07 -1.078493e-07 14.36825 -6.682545 7.604496 5.528578 5.808691 -19.28119 -0.783058 -95.3399 30.92587 22.4559 -4.490534e-07 -2.406232e-07 -16.42916 4.33439 16.80799 9.496103
1.658574 103.4917 8.038604 0.1665805 1.368088 2.034203 3.710394 -21.37587 6.186861 8.422211e-07 31.36528 -7.761469e-07 -7.46872 -12.64328 -2.039868 -6.777184 12.1094 -22.16965 1.174282e-06 4.598289 8.135965e-08 4.456001 -19.8296 22.313 -3.633411 -2.509387 3.482531 2.892373 8.417879 -8.00197 0.855807 22.10199 7.93142 3.692928 -25.2738 9.697345 6.367862 -18.39773 11.16712 86.89115 37.51899 -20.08447 1.062255e-07 -1.022764e-07 13.8484 -7.274029 8.134939 5.583598 6.01318 -20.07211 -1.085623 -94.28999 30.40741 21.28597 -3.153441e-07 -2.117913e-07 -18.45142 4.543128 16.45204 9.165892
2.011665 103.1964 10.46531 0.08507467 1.713737 2.47741 3.960086 -23.37574 5.783877 7.105642e-07 27.68727 -5.479309e-07 -7.176782 -12.08965 -2.080984 -6.52977 13.09219 -21.31647 8.854187e-07 4.876044 5.330542e-07 4.28793 -20.10619 21.38946 -3.508165 -2.588494 3.441538 3.066377 8.644775 -8.415841 0.7143507 21.76923 7.971326 3.728996 -25.24109 9.475129 6.243337 -18.33314 11.34765 87.59864 37.4247 -21.32916 7.6728e-08 -1.029252e-07 13.35909 -7.872084 8.6717 5.645247 6.218198 -20.89484 -1.395852 -93.12619 29.76933 20.11876 -1.735669e-07 -1.749078e-07 -20.54734 4.784492 16.09114 8.755634
2.331343 102.742 13.10163 0.002745584 2.020575 2.888754 4.216916 -25.22411 5.39414 5.828743e-07 23.92927 -3.234317e-07 -6.841801 -11.50742 -2.137663 -6.286715 13.94361 -20.36012 5.796695e-07 5.58572 9.684167e-07 4.022407 -20.26826 20.38674 -3.3643 -2.656907 3.423878 3.234583 8.892829 -8.823293 0.5723364 21.43116 8.00032 3.761032 -25.17262 9.230346 6.114419 -18.25655 11.54015 88.30397 37.29244 -22.57334 4.80723e-08 -1.00817e-07 12.85571 -8.549942 9.258988 5.73521 6.396274 -21.71545 -1.718784 -91.96417 29.07621 18.96961 -3.167442e-08 -1.43249e-07 -22.6575 4.974664 15.66481 8.398089
2.616885 102.1574 15.94596 -0.06748423 2.195908 3.259135 4.458262 -26.67588 5.076313 4.892893e-07 20.58396 -1.497603e-07 -6.522396 -11.04231 -2.248453 -6.06667 14.61074 -19.43863 3.068905e-07 6.774659 1.3447e-06 3.654185 -20.29303 19.45442 -3.213343 -2.682495 3.411734 3.369291 9.10323 -9.153341 0.465752 21.16671 7.99986 3.770482 -25.05115 9.007023 5.973231 -18.13823 11.69454 88.92793 37.08336 -23.63999 2.373079e-08 -9.857914e-08 12.35757 -9.18462 9.790272 5.813414 6.52532 -22.3988 -2.008857 -90.94061 28.46303 17.9043 8.289036e-08 -1.197249e-07 -24.46591 5.082402 15.2458 8.138721
